<svg width="60" height="61" viewBox="0 0 60 61" fill="none" xmlns="http://www.w3.org/2000/svg">
<path d="M0 9.91736C0 4.44015 4.44015 0 9.91736 0H50.0826C55.5598 0 60 4.44015 60 9.91736V51.0744C60 56.5516 55.5598 60.9917 50.0826 60.9917H9.91736C4.44015 60.9917 0 56.5516 0 51.0744V9.91736Z" fill="#8615DF"/>
<path fill-rule="evenodd" clip-rule="evenodd" d="M50.0826 2.47934H9.91736C5.80945 2.47934 2.47934 5.80945 2.47934 9.91736V51.0744C2.47934 55.1823 5.80945 58.5124 9.91736 58.5124H50.0826C54.1905 58.5124 57.5207 55.1823 57.5207 51.0744V9.91736C57.5207 5.80945 54.1905 2.47934 50.0826 2.47934ZM9.91736 0C4.44015 0 0 4.44015 0 9.91736V51.0744C0 56.5516 4.44015 60.9917 9.91736 60.9917H50.0826C55.5598 60.9917 60 56.5516 60 51.0744V9.91736C60 4.44015 55.5598 0 50.0826 0H9.91736Z" fill="#8615DF"/>
<path d="M8.46826 45.124V16.9215H17.1459C19.6253 16.9215 21.8399 17.4832 23.7898 18.6067C25.7526 19.7172 27.2828 21.3055 28.3805 23.3716C29.4781 25.4248 30.0269 27.7621 30.0269 30.3835V31.6813C30.0269 34.3027 29.4845 36.6335 28.3998 38.6738C27.328 40.7141 25.8107 42.296 23.8479 43.4194C21.8851 44.5429 19.6705 45.1111 17.2041 45.124H8.46826ZM14.2792 21.6284V40.4558H17.0878C19.3606 40.4558 21.0974 39.7133 22.2983 38.2283C23.4993 36.7433 24.1126 34.6191 24.1385 31.8556V30.3642C24.1385 27.4974 23.5445 25.328 22.3564 23.8559C21.1684 22.3709 19.4316 21.6284 17.1459 21.6284H14.2792Z" fill="white"/>
<path d="M51.4848 31.6619C51.4848 34.4383 50.9941 36.8724 50.0127 38.9644C49.0313 41.0563 47.6237 42.6705 45.7901 43.8068C43.9693 44.9432 41.8774 45.5114 39.5142 45.5114C37.1769 45.5114 35.0915 44.9496 33.2578 43.8262C31.4241 42.7027 30.0036 41.1015 28.9964 39.0225C27.9892 36.9305 27.4791 34.5287 27.4662 31.8169V30.4223C27.4662 27.6459 27.9634 25.2053 28.9577 23.1005C29.9649 20.9827 31.3789 19.3621 33.1997 18.2386C35.0333 17.1023 37.1253 16.5341 39.4755 16.5341C41.8257 16.5341 43.9112 17.1023 45.732 18.2386C47.5656 19.3621 48.9796 20.9827 49.9739 23.1005C50.9812 25.2053 51.4848 27.6395 51.4848 30.4029V31.6619ZM45.5964 30.3835C45.5964 27.4264 45.0669 25.1795 44.008 23.6428C42.9492 22.1061 41.4383 21.3378 39.4755 21.3378C37.5256 21.3378 36.0212 22.0997 34.9623 23.6234C33.9034 25.1343 33.3675 27.3554 33.3546 30.2867V31.6619C33.3546 34.5416 33.8841 36.7756 34.943 38.3639C36.0018 39.9522 37.5256 40.7464 39.5142 40.7464C41.4641 40.7464 42.9621 39.9845 44.008 38.4607C45.054 36.9241 45.5835 34.6901 45.5964 31.7588V30.3835Z" fill="white"/>
</svg>
